<svg width="20" height="22" viewBox="0 0 20 22" fill="none" xmlns="http://www.w3.org/2000/svg">
<g id="Group 1000005984">
<path id="Union" fill-rule="evenodd" clip-rule="evenodd" d="M13.8496 0.290039C15.7905 0.290039 17.0749 2.32337 16.2357 4.06733C15.8019 4.96873 14.8906 5.54043 13.8874 5.54043H10.7823L10.7823 5.54054H9.98166L6.11438 5.54054C5.11118 5.54054 4.19981 4.96884 3.76604 4.06743C2.92681 2.32347 4.21127 0.290146 6.15217 0.290146H6.48604C7.56891 0.290146 8.55267 0.907252 9.02089 1.88024L10.0008 3.91663L10.9808 1.88014C11.4491 0.907144 12.4328 0.290039 13.5157 0.290039H13.8496ZM15.334 3.62848C15.8535 2.54882 15.0584 1.29001 13.8568 1.29001H13.5229C12.8222 1.29001 12.1856 1.68935 11.8826 2.31899L10.8135 4.54045H13.8802C14.5012 4.54045 15.0655 4.18652 15.334 3.62848ZM4.66775 3.62858C4.14819 2.54892 4.94339 1.29012 6.14497 1.29012H6.47885C7.17958 1.29012 7.81618 1.68946 8.11918 2.31909L9.1882 4.54056H6.12158C5.50051 4.54056 4.9363 4.18663 4.66775 3.62858Z" fill="white"/>
<path id="Union_2" fill-rule="evenodd" clip-rule="evenodd" d="M1.26249 4.42578C0.677016 4.42578 0.199069 4.88752 0.194968 5.45709L0.178734 7.7122C0.174634 8.28178 0.645935 8.74352 1.23141 8.74352H18.7385C19.3239 8.74352 19.8019 8.28178 19.806 7.7122L19.8222 5.45709C19.8263 4.88752 19.355 4.42578 18.7695 4.42578L1.26249 4.42578Z" fill="white"/>
<path id="Union_3" fill-rule="evenodd" clip-rule="evenodd" d="M8.38971 9.43384H1.2854V20.5278C1.2854 21.0627 1.76002 21.4962 2.3455 21.4962H8.38566V21.4976H11.6226V9.43526H8.38971V9.43384ZM11.6236 9.43384H18.7279V20.5278C18.7279 21.0627 18.2532 21.4962 17.6678 21.4962H11.6236V9.43384Z" fill="white"/>
<rect id="Rectangle 5" x="8.87451" y="4.42236" width="2.25159" height="4.32125" fill="#DD468E"/>
<path id="Rectangle Copy" fill-rule="evenodd" clip-rule="evenodd" d="M11.1262 9.43433L11.1262 21.4941H8.87451L8.87451 9.43433H11.1262Z" fill="#DD468E"/>
</g>
</svg>
